<?xml version="1.0" encoding="UTF-8" standalone="no"?>
<!DOCTYPE svg PUBLIC "-//W3C//DTD SVG 1.1//EN" "http://www.w3.org/Graphics/SVG/1.1/DTD/svg11.dtd">
<svg width="100%" height="100%" viewBox="0 0 3123 480" version="1.1" xmlns="http://www.w3.org/2000/svg" xmlns:xlink="http://www.w3.org/1999/xlink" xml:space="preserve" xmlns:serif="http://www.serif.com/" style="fill-rule:evenodd;clip-rule:evenodd;stroke-linejoin:round;stroke-miterlimit:2;">
    <g transform="matrix(1,0,0,1,-17982,-1795)">
        <g transform="matrix(1,0,0,1.13733,-6296.99,-11563.1)">
            <g id="MITRE-ACT-text-horizontal" serif:id="MITRE ACT text horizontal" transform="matrix(1.25495,0,0,1.10342,25329.9,11035.7)">
                <g id="ACT-text" serif:id="ACT text" transform="matrix(1.0295,0,0,1.0295,213.225,-29.0182)">
                    <g id="ACT-text1" serif:id="ACT text" transform="matrix(6.416,0,0,7.52212,-5226.3,-8841.15)">
                        <path d="M936.321,1272.92L932.926,1293.09L939.849,1293.09L936.454,1272.92L936.321,1272.92ZM944.175,1263.2L955.758,1310.73L942.578,1310.73L941.313,1302.41L931.461,1302.41L930.197,1310.73L917.216,1310.73L928.599,1263.2L944.175,1263.2Z" style="fill:white;fill-rule:nonzero;stroke:white;stroke-width:0.11px;"/>
                        <path d="M975.461,1277.64L975.461,1280.31L987.443,1280.31L987.443,1277.31C987.443,1275 987.166,1272.93 986.611,1271.09C986.056,1269.25 985.169,1267.67 983.948,1266.36C982.728,1265.05 981.141,1264.04 979.189,1263.33C977.236,1262.62 974.862,1262.27 972.066,1262.27C968.871,1262.27 966.186,1262.7 964.012,1263.57C961.837,1264.43 960.085,1265.84 958.753,1267.79C957.422,1269.75 956.479,1272.3 955.924,1275.45C955.369,1278.6 955.092,1282.44 955.092,1286.96C955.092,1291.4 955.325,1295.18 955.791,1298.31C956.257,1301.44 957.111,1303.99 958.354,1305.97C959.596,1307.94 961.327,1309.35 963.546,1310.19C965.765,1311.04 968.605,1311.46 972.066,1311.46C974.063,1311.46 976.005,1311.25 977.891,1310.83C979.777,1310.4 981.452,1309.58 982.916,1308.36C984.381,1307.14 985.557,1305.47 986.444,1303.34C987.332,1301.21 987.776,1298.48 987.776,1295.15L987.776,1291.62L975.794,1291.62C975.794,1293.89 975.739,1295.76 975.628,1297.25C975.517,1298.73 975.328,1299.92 975.062,1300.81C974.795,1301.7 974.418,1302.33 973.93,1302.71C973.442,1303.08 972.821,1303.27 972.066,1303.27C971.134,1303.27 970.391,1303.03 969.836,1302.54C969.282,1302.05 968.86,1301.19 968.572,1299.94C968.283,1298.7 968.095,1297.03 968.006,1294.92C967.917,1292.81 967.873,1290.16 967.873,1286.96C967.873,1283.77 967.917,1281.12 968.006,1279.01C968.095,1276.9 968.283,1275.23 968.572,1273.98C968.86,1272.74 969.282,1271.88 969.836,1271.39C970.391,1270.9 971.134,1270.65 972.066,1270.65C973.264,1270.65 974.13,1271.14 974.662,1272.12C975.195,1273.1 975.461,1274.94 975.461,1277.64Z" style="fill:white;fill-rule:nonzero;stroke:white;stroke-width:0.11px;"/>
                        <path d="M998.493,1273.72L998.493,1310.73L1010.87,1310.73L1010.87,1273.72L1020.19,1273.72L1020.19,1263.2L989.307,1263.2L989.307,1273.72L998.493,1273.72Z" style="fill:white;fill-rule:nonzero;stroke:white;stroke-width:0.11px;"/>
                    </g>
                    <g id="TM-text" serif:id="TM text" transform="matrix(0.189972,0,0,0.186875,929.089,581.503)">
                        <path d="M2183.57,534.209L2183.57,664.908L2218.83,664.908L2218.83,534.209L2266.88,534.209L2266.88,504.566L2135.51,504.566L2135.51,534.209L2183.57,534.209Z" style="fill:white;fill-rule:nonzero;"/>
                        <path d="M2285.3,504.566L2285.3,664.908L2318.31,664.908L2318.31,552.399L2318.76,552.399L2358.06,664.908L2385.23,664.908L2424.53,551.276L2424.98,551.276L2424.98,664.908L2457.99,664.908L2457.99,504.566L2408.36,504.566L2372.88,614.829L2372.43,614.829L2334.93,504.566L2285.3,504.566Z" style="fill:white;fill-rule:nonzero;"/>
                    </g>
                </g>
                <g transform="matrix(1.11649,0,0,0.796842,-21517.1,-8723.12)">
                    <rect x="19893.1" y="11763.8" width="11.218" height="464.367" style="fill:white;stroke:white;stroke-width:0.82px;stroke-miterlimit:1.5;"/>
                </g>
                <g id="MITRE-Text" serif:id="MITRE Text" transform="matrix(6.15685,0,0,6.15685,-898.503,562.144)">
                    <path d="M62.1,14.5L47.6,51.9L32.9,14.5L21.2,14.5L10,74.4L22,74.4L29.1,36.9L43,74.4L52,74.4L65.9,36.9L73,74.4L85.4,74.4L73.8,14.5L62.1,14.5Z" style="fill:white;fill-rule:nonzero;stroke:white;stroke-width:0.13px;"/>
                    <rect x="88.4" y="14.5" width="11.2" height="60" style="fill:white;stroke:white;stroke-width:0.13px;"/>
                    <path d="M103.3,14.5L103.3,24.2L116.5,24.2L116.5,74.4L127.7,74.4L127.7,24.2L140.9,24.2L140.9,14.5L103.3,14.5Z" style="fill:white;fill-rule:nonzero;stroke:white;stroke-width:0.13px;"/>
                    <g>
                        <path d="M155.8,74.4L144.6,74.4L144.6,14.4L171.3,14.4C172.4,14.4 174.2,14.8 176.7,15.5C179.2,16.2 181.7,17.9 184.2,20.4C186.7,23 187.9,26.7 187.9,31.6C187.9,36.7 186.6,40.6 183.9,43.2C181.2,45.9 178.5,47.5 175.7,48.2C173,49 170.9,49.3 169.6,49.3L189.6,74.3L176,74.3L157.7,49.5L157.7,38.9L168.9,38.8L169.5,38.8C171,38.8 172.6,38.2 174.1,37.1C175.8,35.8 176.6,34 176.6,31.7C176.6,29.6 175.9,27.9 174.5,26.5C173.1,25.2 171.2,24.5 168.8,24.5L155.7,24.5L155.7,74.4L155.8,74.4Z" style="fill:white;fill-rule:nonzero;stroke:white;stroke-width:0.13px;"/>
                        <path d="M189.5,14.5L224.3,14.5L224.3,24.2L200.8,24.2L200.8,39.6L224,39.6L224,49.3L200.8,49.3L200.8,64.7L224.3,64.7L224.3,74.4L189.5,74.4L189.5,14.5Z" style="fill:white;fill-rule:nonzero;stroke:white;stroke-width:0.13px;"/>
                    </g>
                </g>
            </g>
        </g>
    </g>
</svg>
