<?xml version="1.0" encoding="UTF-8" standalone="no"?>
<!DOCTYPE svg PUBLIC "-//W3C//DTD SVG 1.1//EN" "http://www.w3.org/Graphics/SVG/1.1/DTD/svg11.dtd">
<svg width="100%" height="100%" viewBox="0 0 3418 3134" version="1.1" xmlns="http://www.w3.org/2000/svg" xmlns:xlink="http://www.w3.org/1999/xlink" xml:space="preserve" xmlns:serif="http://www.serif.com/" style="fill-rule:evenodd;clip-rule:evenodd;stroke-linejoin:round;stroke-miterlimit:2;">
    <g transform="matrix(1,0,0,1,-6887,-8828)">
        <g transform="matrix(1,0,0,1.13733,-6296.99,-11563.1)">
            <g id="Arrow-ACT-MITRE-Outline" serif:id="Arrow ACT MITRE Outline" transform="matrix(1.0004,0,0,0.879605,13116.9,17748.1)">
                <g id="Arrow-Outline-shape" serif:id="Arrow Outline shape" transform="matrix(1,0,0,1,0.0364887,0.0332827)">
                    <path d="M3483.26,1747.74C3483.28,1748.95 3483.28,1750.16 3483.26,1751.37C3481.88,1813.52 3452.96,1885.65 3393.14,1961.59C3322.31,2051.52 3205.19,2152.53 3054.99,2256.95C2499.39,2643.2 1478.62,3090.71 813.36,3263.03C685.891,3296.05 571.126,3319.07 474.619,3330.16C344.302,3345.12 243.105,3336.41 180.619,3308.97L135.81,3279.97L117.312,3259.67L102.931,3236.8C85.258,3202.38 78.624,3156.39 89.518,3099.81C114.162,2971.85 247.034,2752.76 383.922,2505.59C442.294,2395.07 554.866,2175.21 596.342,2062.61C617.849,2004.22 635.662,1946.26 648.081,1889.54C660.095,1834.67 667.061,1781.06 667.061,1729.51C667.061,1639.9 637.931,1540.55 595.122,1437.59C549.737,1328.43 435.451,1139.92 368.797,1026.88C366.603,1023.99 364.565,1020.94 362.697,1017.77C284.704,885.105 261.216,840.554 197.275,730.103C187.965,714.022 128.785,611.35 95.026,522.242C76.265,472.721 66.042,425.859 67.212,392.955L75.5,343.565L93.032,305.874L109.227,284.168L130.467,263.914C144.911,252.336 162.918,241.621 185.776,233.563C250.765,210.655 408.916,170.786 819.988,267.304C1495.79,425.978 2513.09,863.876 3062.88,1244.25C3211.76,1347.26 3327.32,1447.16 3396.59,1536.17C3455.54,1611.92 3483.2,1683.95 3483.28,1746.06C3483.28,1746.62 3483.27,1747.18 3483.26,1747.74Z" style="fill:white;"/>
                </g>
                <g id="Arrow-ACT-MITRE" serif:id="Arrow ACT MITRE">
                    <g id="Arrow--no-text-" serif:id="Arrow (no text)" transform="matrix(1,0,0,1,-5075.54,-0.0332827)">
                        <g id="Arrow-bottom-layer" serif:id="Arrow bottom layer" transform="matrix(0.999955,0,0,0.999955,5075.58,0.080087)">
                            <path d="M278.377,683.152C265.952,661.689 158.055,475.308 160.866,396.286C161.018,392.017 159.546,342.174 216.931,321.946C276.566,300.924 421.361,269.969 798.568,358.535C1750.22,581.979 3389.08,1366.67 3389.57,1746.18C3389.49,1745.34 3389.4,1744.51 3389.31,1743.67C3389.39,1745.02 3389.45,1746.38 3389.49,1747.75C3388.69,1755.85 3387.31,1763.61 3385.32,1771.04C3384.06,1775.74 3382.53,1780.45 3380.73,1785.17C3382.54,1780.47 3384.09,1775.76 3385.35,1771.04C3387.34,1763.61 3388.73,1755.85 3389.53,1747.75C3389.54,1748.27 3389.56,1748.78 3389.57,1749.3C3381.09,2133.05 1727.48,2929.44 789.86,3172.32C667.2,3204.09 556.794,3226.39 463.928,3237.06C355.163,3249.55 270.459,3246.07 218.308,3223.17C93.654,3168.41 279.196,2888.18 466.35,2550.18C526.071,2437.14 641.647,2210.73 684.278,2095C707.318,2032.45 726.321,1970.34 739.624,1909.59C753.142,1847.85 760.774,1787.51 760.774,1729.51C760.774,1628.98 729.681,1517.12 681.653,1401.61C633.792,1286.5 444.758,970.225 443.482,970.272C365.637,837.862 342.197,793.393 278.377,683.152Z" style="fill:rgb(135,222,255);"/>
                        </g>
                        <g id="Arrow-2nd-from-bottom-layer" serif:id="Arrow 2nd from bottom layer" transform="matrix(1.14106,0,0,1.14106,4796.2,-250.478)">
                            <path d="M3207.58,1784C3209.18,1779.88 3210.53,1775.76 3211.63,1771.62C3213.38,1765.11 3214.6,1758.3 3215.3,1751.21C3215.31,1751.66 3215.32,1752.12 3215.33,1752.57C3207.9,2088.88 1758.7,2786.82 936.996,2999.67C829.499,3027.52 732.741,3047.06 651.355,3056.41C556.036,3067.36 481.803,3064.31 436.098,3044.24C326.854,2996.25 489.459,2750.66 653.478,2454.45C705.816,2355.38 807.105,2156.96 844.466,2055.53C864.658,2000.71 881.312,1946.29 892.97,1893.04C904.817,1838.94 911.505,1786.06 911.505,1735.23C911.505,1647.12 884.257,1549.1 842.166,1447.86C800.333,1347.24 692.686,1170.58 633.439,1069.84C633.439,1069.84 633.438,1069.84 633.437,1069.84C565.215,953.801 544.673,914.83 488.742,818.216C621.964,809.319 799.24,822.882 999.704,853.276C1868.95,985.072 3174.21,1433.34 3214.3,1739.16C3214.66,1741.93 3214.93,1744.75 3215.1,1747.59C3215.17,1748.79 3215.23,1750 3215.27,1751.21C3214.57,1758.3 3213.35,1765.11 3211.61,1771.62C3210.5,1775.74 3209.16,1779.86 3207.58,1784Z" style="fill:rgb(27,122,189);"/>
                        </g>
                        <g id="Arrow-2nd-from-top-layer" serif:id="Arrow 2nd from top layer" transform="matrix(1.14106,0,0,1.14106,4796.2,-250.478)">
                            <path d="M3207.58,1784C3209.18,1779.88 3210.53,1775.76 3211.63,1771.62C3213.38,1765.11 3214.6,1758.3 3215.3,1751.21C3215.31,1751.66 3215.32,1752.12 3215.33,1752.57C3207.9,2088.88 1758.7,2786.82 936.996,2999.67C829.499,3027.52 732.741,3047.06 651.355,3056.41C556.036,3067.36 481.803,3064.31 436.098,3044.24C326.854,2996.25 489.459,2750.66 653.478,2454.45C705.816,2355.38 807.105,2156.96 844.466,2055.53C864.658,2000.71 881.312,1946.29 892.97,1893.04C904.817,1838.94 911.505,1786.06 911.505,1735.23C911.505,1647.12 884.257,1549.1 842.166,1447.86C800.221,1346.98 692.112,1169.64 632.967,1069.04C727.729,1065.51 877.764,1070.86 987.668,1075C1865.91,1108.04 3134.54,1441.14 3211.61,1728.76C3213.22,1734.79 3214.38,1741.07 3215.1,1747.59C3215.17,1748.79 3215.23,1750 3215.27,1751.21C3214.57,1758.3 3213.35,1765.11 3211.61,1771.62C3210.5,1775.74 3209.16,1779.86 3207.58,1784Z" style="fill:rgb(11,35,56);"/>
                        </g>
                        <g id="Arrow-top-layer" serif:id="Arrow top layer" transform="matrix(1.14106,0,0,1.14106,4796.16,-250.478)">
                            <path d="M842.194,1447.86C800.25,1346.98 692.141,1169.64 632.995,1069.04C727.757,1065.51 877.793,1070.86 987.697,1075C1865.93,1108.04 3134.57,1441.14 3211.63,1728.76C3213.25,1734.79 3214.41,1741.07 3215.13,1747.59C3215.2,1748.79 3215.26,1750 3215.3,1751.21C3214.6,1758.3 3213.38,1765.11 3211.63,1771.62C3134.57,2059.24 1884.26,2412.23 1006.03,2445.26C974.924,2446.43 908.324,2449.55 878.257,2450.13C809.838,2451.45 715.377,2456.34 653.506,2454.45C705.845,2355.38 807.134,2156.96 844.495,2055.53C864.686,2000.71 881.341,1946.29 892.999,1893.04C904.845,1838.94 911.534,1786.06 911.534,1735.23C911.534,1647.12 884.285,1549.1 842.194,1447.86Z" style="fill:rgb(0,91,148);"/>
                        </g>
                    </g>
                    <g id="MITRE-ACT-text" serif:id="MITRE ACT text" transform="matrix(2.44093,0,0,2.44093,-735.154,-255.885)">
                        <g id="MITRE-Text" serif:id="MITRE Text" transform="matrix(1.1547,0,0,1.1547,715.923,540.398)">
                            <path d="M62.1,14.5L47.6,51.9L32.9,14.5L21.2,14.5L10,74.4L22,74.4L29.1,36.9L43,74.4L52,74.4L65.9,36.9L73,74.4L85.4,74.4L73.8,14.5L62.1,14.5Z" style="fill:white;fill-rule:nonzero;stroke:white;stroke-width:0.35px;"/>
                            <rect x="88.4" y="14.5" width="11.2" height="60" style="fill:white;stroke:white;stroke-width:0.35px;"/>
                            <path d="M103.3,14.5L103.3,24.2L116.5,24.2L116.5,74.4L127.7,74.4L127.7,24.2L140.9,24.2L140.9,14.5L103.3,14.5Z" style="fill:white;fill-rule:nonzero;stroke:white;stroke-width:0.35px;"/>
                            <g>
                                <path d="M155.8,74.4L144.6,74.4L144.6,14.4L171.3,14.4C172.4,14.4 174.2,14.8 176.7,15.5C179.2,16.2 181.7,17.9 184.2,20.4C186.7,23 187.9,26.7 187.9,31.6C187.9,36.7 186.6,40.6 183.9,43.2C181.2,45.9 178.5,47.5 175.7,48.2C173,49 170.9,49.3 169.6,49.3L189.6,74.3L176,74.3L157.7,49.5L157.7,38.9L168.9,38.8L169.5,38.8C171,38.8 172.6,38.2 174.1,37.1C175.8,35.8 176.6,34 176.6,31.7C176.6,29.6 175.9,27.9 174.5,26.5C173.1,25.2 171.2,24.5 168.8,24.5L155.7,24.5L155.7,74.4L155.8,74.4Z" style="fill:white;fill-rule:nonzero;stroke:white;stroke-width:0.35px;"/>
                                <path d="M189.5,14.5L224.3,14.5L224.3,24.2L200.8,24.2L200.8,39.6L224,39.6L224,49.3L200.8,49.3L200.8,64.7L224.3,64.7L224.3,74.4L189.5,74.4L189.5,14.5Z" style="fill:white;fill-rule:nonzero;stroke:white;stroke-width:0.35px;"/>
                            </g>
                        </g>
                        <g id="ACT-TM-text" serif:id="ACT TM text" transform="matrix(1,0,0,1,-7.00088,-2.96606)">
                            <g id="ACT-text" serif:id="ACT text" transform="matrix(6.416,0,0,7.52212,-5226.3,-8841.15)">
                                <path d="M936.321,1272.92L932.926,1293.09L939.849,1293.09L936.454,1272.92L936.321,1272.92ZM944.175,1263.2L955.758,1310.73L942.578,1310.73L941.313,1302.41L931.461,1302.41L930.197,1310.73L917.216,1310.73L928.599,1263.2L944.175,1263.2Z" style="fill:white;fill-rule:nonzero;stroke:white;stroke-width:0.06px;"/>
                                <path d="M975.461,1277.64L975.461,1280.31L987.443,1280.31L987.443,1277.31C987.443,1275 987.166,1272.93 986.611,1271.09C986.056,1269.25 985.169,1267.67 983.948,1266.36C982.728,1265.05 981.141,1264.04 979.189,1263.33C977.236,1262.62 974.862,1262.27 972.066,1262.27C968.871,1262.27 966.186,1262.7 964.012,1263.57C961.837,1264.43 960.085,1265.84 958.753,1267.79C957.422,1269.75 956.479,1272.3 955.924,1275.45C955.369,1278.6 955.092,1282.44 955.092,1286.96C955.092,1291.4 955.325,1295.18 955.791,1298.31C956.257,1301.44 957.111,1303.99 958.354,1305.97C959.596,1307.94 961.327,1309.35 963.546,1310.19C965.765,1311.04 968.605,1311.46 972.066,1311.46C974.063,1311.46 976.005,1311.25 977.891,1310.83C979.777,1310.4 981.452,1309.58 982.916,1308.36C984.381,1307.14 985.557,1305.47 986.444,1303.34C987.332,1301.21 987.776,1298.48 987.776,1295.15L987.776,1291.62L975.794,1291.62C975.794,1293.89 975.739,1295.76 975.628,1297.25C975.517,1298.73 975.328,1299.92 975.062,1300.81C974.795,1301.7 974.418,1302.33 973.93,1302.71C973.442,1303.08 972.821,1303.27 972.066,1303.27C971.134,1303.27 970.391,1303.03 969.836,1302.54C969.282,1302.05 968.86,1301.19 968.572,1299.94C968.283,1298.7 968.095,1297.03 968.006,1294.92C967.917,1292.81 967.873,1290.16 967.873,1286.96C967.873,1283.77 967.917,1281.12 968.006,1279.01C968.095,1276.9 968.283,1275.23 968.572,1273.98C968.86,1272.74 969.282,1271.88 969.836,1271.39C970.391,1270.9 971.134,1270.65 972.066,1270.65C973.264,1270.65 974.13,1271.14 974.662,1272.12C975.195,1273.1 975.461,1274.94 975.461,1277.64Z" style="fill:white;fill-rule:nonzero;stroke:white;stroke-width:0.06px;"/>
                                <path d="M998.493,1273.72L998.493,1310.73L1010.87,1310.73L1010.87,1273.72L1020.19,1273.72L1020.19,1263.2L989.307,1263.2L989.307,1273.72L998.493,1273.72Z" style="fill:white;fill-rule:nonzero;stroke:white;stroke-width:0.06px;"/>
                            </g>
                            <g id="TM-text" serif:id="TM text" transform="matrix(0.189972,0,0,0.186875,945.358,591.492)">
                                <path d="M2183.57,534.209L2183.57,664.908L2218.83,664.908L2218.83,534.209L2266.88,534.209L2266.88,504.566L2135.51,504.566L2135.51,534.209L2183.57,534.209Z" style="fill:white;fill-rule:nonzero;"/>
                                <path d="M2285.3,504.566L2285.3,664.908L2318.31,664.908L2318.31,552.399L2318.76,552.399L2358.06,664.908L2385.23,664.908L2424.53,551.276L2424.98,551.276L2424.98,664.908L2457.99,664.908L2457.99,504.566L2408.36,504.566L2372.88,614.829L2372.43,614.829L2334.93,504.566L2285.3,504.566Z" style="fill:white;fill-rule:nonzero;"/>
                            </g>
                        </g>
                    </g>
                </g>
            </g>
        </g>
    </g>
</svg>
