<?xml version="1.0" encoding="UTF-8" standalone="no"?>
<!DOCTYPE svg PUBLIC "-//W3C//DTD SVG 1.1//EN" "http://www.w3.org/Graphics/SVG/1.1/DTD/svg11.dtd">
<svg width="100%" height="100%" viewBox="0 0 1280 640" version="1.1" xmlns="http://www.w3.org/2000/svg" xmlns:xlink="http://www.w3.org/1999/xlink" xml:space="preserve" xmlns:serif="http://www.serif.com/" style="fill-rule:evenodd;clip-rule:evenodd;stroke-linejoin:round;stroke-miterlimit:2;">
    <g transform="matrix(1,0,0,1,-34054,-5776)">
        <g transform="matrix(0.643951,0,0,0.425256,17818.3,5359.54)">
            <g id="GitHub-Repo-Card" serif:id="GitHub Repo Card" transform="matrix(1,0,0,0.838855,2058.62,95.2722)">
                <g transform="matrix(2.66839,0,0,8.86685,-64578.4,-57051.7)">
                    <rect x="32878.5" y="6553.13" width="744.918" height="202.336" style="fill:rgb(13,47,79);"/>
                    <clipPath id="_clip1">
                        <rect x="32878.5" y="6553.13" width="744.918" height="202.336"/>
                    </clipPath>
                    <g clip-path="url(#_clip1)">
                        <g id="Arrow-ACT-MITRE-Outline-Background-Square-Outline" serif:id="Arrow ACT MITRE Outline Background Square Outline" transform="matrix(0.343589,0,0,0.186653,30325.3,4436.66)">
                            <g id="Background-Outline---Square" serif:id="Background Outline - Square" transform="matrix(1.48562,0,0,17.2793,-10769.4,-128983)">
                                <g id="Background-Outline---Square1" serif:id="Background Outline - Square">
                                    <path id="Background-Outline---Square2" serif:id="Background Outline - Square" d="M14160.6,8083.27L14160.6,8281.35C14160.6,8287.7 14100.7,8292.86 14026.8,8292.86L11722.9,8292.86C11649.1,8292.86 11589.1,8287.7 11589.1,8281.35L11589.1,8083.27C11589.1,8076.92 11649.1,8071.76 11722.9,8071.76L14026.8,8071.76C14100.7,8071.76 14160.6,8076.92 14160.6,8083.27Z" style="fill:white;"/>
                                </g>
                            </g>
                            <g id="Arrow-ACT-MITRE-Outline-Background-Square" serif:id="Arrow ACT MITRE Outline Background Square" transform="matrix(1,0,0,1,6570.46,10483.5)">
                                <g id="Background---Square" serif:id="Background - Square" transform="matrix(1.41003,0,0,16.4001,-16366.7,-132273)">
                                    <g id="Background---Square1" serif:id="Background - Square">
                                        <path id="Background---Square2" serif:id="Background - Square" d="M14160.6,8083.27L14160.6,8281.35C14160.6,8287.7 14100.7,8292.86 14026.8,8292.86L11722.9,8292.86C11649.1,8292.86 11589.1,8287.7 11589.1,8281.35L11589.1,8083.27C11589.1,8076.92 11649.1,8071.76 11722.9,8071.76L14026.8,8071.76C14100.7,8071.76 14160.6,8076.92 14160.6,8083.27Z" style="fill:rgb(13,47,79);"/>
                                    </g>
                                </g>
                                <g id="Arrow-ACT-MITRE-Outline" serif:id="Arrow ACT MITRE Outline" transform="matrix(1.0004,0,0,1.0004,11.345,145.904)">
                                    <g id="Arrow-Outline-shape" serif:id="Arrow Outline shape" transform="matrix(1,0,0,1,0.0364887,0.0332827)">
                                        <path d="M3483.26,1747.74C3483.28,1748.95 3483.28,1750.16 3483.26,1751.37C3481.88,1813.52 3452.96,1885.65 3393.14,1961.59C3322.31,2051.52 3205.19,2152.53 3054.99,2256.95C2499.39,2643.2 1478.62,3090.71 813.36,3263.03C685.891,3296.05 571.126,3319.07 474.619,3330.16C344.302,3345.12 243.105,3336.41 180.619,3308.97L135.81,3279.97L117.312,3259.67L102.931,3236.8C85.258,3202.38 78.624,3156.39 89.518,3099.81C114.162,2971.85 247.034,2752.76 383.922,2505.59C442.294,2395.07 554.866,2175.21 596.342,2062.61C617.849,2004.22 635.662,1946.26 648.081,1889.54C660.095,1834.67 667.061,1781.06 667.061,1729.51C667.061,1639.9 637.931,1540.55 595.122,1437.59C549.737,1328.43 435.451,1139.92 368.797,1026.88C366.603,1023.99 364.565,1020.94 362.697,1017.77C284.704,885.105 261.216,840.554 197.275,730.103C187.965,714.022 128.785,611.35 95.026,522.242C76.265,472.721 66.042,425.859 67.212,392.955L75.5,343.565L93.032,305.874L109.227,284.168L130.467,263.914C144.911,252.336 162.918,241.621 185.776,233.563C250.765,210.655 408.916,170.786 819.988,267.304C1495.79,425.978 2513.09,863.876 3062.88,1244.25C3211.76,1347.26 3327.32,1447.16 3396.59,1536.17C3455.54,1611.92 3483.2,1683.95 3483.28,1746.06C3483.28,1746.62 3483.27,1747.18 3483.26,1747.74Z" style="fill:white;"/>
                                    </g>
                                    <g id="Arrow--no-text-" serif:id="Arrow (no text)" transform="matrix(1,0,0,1,-5075.54,-0.0332827)">
                                        <g id="Arrow-ACT-MITRE" serif:id="Arrow ACT MITRE">
                                            <g id="Arrow--no-text-1" serif:id="Arrow (no text)">
                                                <g id="Arrow-bottom-layer" serif:id="Arrow bottom layer" transform="matrix(0.999955,0,0,0.999955,5075.58,0.080087)">
                                                    <path d="M278.377,683.152C265.952,661.689 158.055,475.308 160.866,396.286C161.018,392.017 159.546,342.174 216.931,321.946C276.566,300.924 421.361,269.969 798.568,358.535C1750.22,581.979 3389.08,1366.67 3389.57,1746.18C3389.49,1745.34 3389.4,1744.51 3389.31,1743.67C3389.39,1745.02 3389.45,1746.38 3389.49,1747.75C3388.69,1755.85 3387.31,1763.61 3385.32,1771.04C3384.06,1775.74 3382.53,1780.45 3380.73,1785.17C3382.54,1780.47 3384.09,1775.76 3385.35,1771.04C3387.34,1763.61 3388.73,1755.85 3389.53,1747.75C3389.54,1748.27 3389.56,1748.78 3389.57,1749.3C3381.09,2133.05 1727.48,2929.44 789.86,3172.32C667.2,3204.09 556.794,3226.39 463.928,3237.06C355.163,3249.55 270.459,3246.07 218.308,3223.17C93.654,3168.41 279.196,2888.18 466.35,2550.18C526.071,2437.14 641.647,2210.73 684.278,2095C707.318,2032.45 726.321,1970.34 739.624,1909.59C753.142,1847.85 760.774,1787.51 760.774,1729.51C760.774,1628.98 729.681,1517.12 681.653,1401.61C633.792,1286.5 444.758,970.225 443.482,970.272C365.637,837.862 342.197,793.393 278.377,683.152Z" style="fill:rgb(135,222,255);"/>
                                                </g>
                                                <g id="Arrow-2nd-from-bottom-layer" serif:id="Arrow 2nd from bottom layer" transform="matrix(1.14106,0,0,1.14106,4796.2,-250.478)">
                                                    <path d="M3207.58,1784C3209.18,1779.88 3210.53,1775.76 3211.63,1771.62C3213.38,1765.11 3214.6,1758.3 3215.3,1751.21C3215.31,1751.66 3215.32,1752.12 3215.33,1752.57C3207.9,2088.88 1758.7,2786.82 936.996,2999.67C829.499,3027.52 732.741,3047.06 651.355,3056.41C556.036,3067.36 481.803,3064.31 436.098,3044.24C326.854,2996.25 489.459,2750.66 653.478,2454.45C705.816,2355.38 807.105,2156.96 844.466,2055.53C864.658,2000.71 881.312,1946.29 892.97,1893.04C904.817,1838.94 911.505,1786.06 911.505,1735.23C911.505,1647.12 884.257,1549.1 842.166,1447.86C800.333,1347.24 692.686,1170.58 633.439,1069.84C633.439,1069.84 633.438,1069.84 633.437,1069.84C565.215,953.801 544.673,914.83 488.742,818.216C621.964,809.319 799.24,822.882 999.704,853.276C1868.95,985.072 3174.21,1433.34 3214.3,1739.16C3214.66,1741.93 3214.93,1744.75 3215.1,1747.59C3215.17,1748.79 3215.23,1750 3215.27,1751.21C3214.57,1758.3 3213.35,1765.11 3211.61,1771.62C3210.5,1775.74 3209.16,1779.86 3207.58,1784Z" style="fill:rgb(27,122,189);"/>
                                                </g>
                                                <g id="Arrow-2nd-from-top-layer" serif:id="Arrow 2nd from top layer" transform="matrix(1.14106,0,0,1.14106,4796.2,-250.478)">
                                                    <path d="M3207.58,1784C3209.18,1779.88 3210.53,1775.76 3211.63,1771.62C3213.38,1765.11 3214.6,1758.3 3215.3,1751.21C3215.31,1751.66 3215.32,1752.12 3215.33,1752.57C3207.9,2088.88 1758.7,2786.82 936.996,2999.67C829.499,3027.52 732.741,3047.06 651.355,3056.41C556.036,3067.36 481.803,3064.31 436.098,3044.24C326.854,2996.25 489.459,2750.66 653.478,2454.45C705.816,2355.38 807.105,2156.96 844.466,2055.53C864.658,2000.71 881.312,1946.29 892.97,1893.04C904.817,1838.94 911.505,1786.06 911.505,1735.23C911.505,1647.12 884.257,1549.1 842.166,1447.86C800.221,1346.98 692.112,1169.64 632.967,1069.04C727.729,1065.51 877.764,1070.86 987.668,1075C1865.91,1108.04 3134.54,1441.14 3211.61,1728.76C3213.22,1734.79 3214.38,1741.07 3215.1,1747.59C3215.17,1748.79 3215.23,1750 3215.27,1751.21C3214.57,1758.3 3213.35,1765.11 3211.61,1771.62C3210.5,1775.74 3209.16,1779.86 3207.58,1784Z" style="fill:rgb(11,35,56);"/>
                                                </g>
                                                <g id="Arrow-top-layer" serif:id="Arrow top layer" transform="matrix(1.14106,0,0,1.14106,4796.16,-250.478)">
                                                    <path d="M842.194,1447.86C800.25,1346.98 692.141,1169.64 632.995,1069.04C727.757,1065.51 877.793,1070.86 987.697,1075C1865.93,1108.04 3134.57,1441.14 3211.63,1728.76C3213.25,1734.79 3214.41,1741.07 3215.13,1747.59C3215.2,1748.79 3215.26,1750 3215.3,1751.21C3214.6,1758.3 3213.38,1765.11 3211.63,1771.62C3134.57,2059.24 1884.26,2412.23 1006.03,2445.26C974.924,2446.43 908.324,2449.55 878.257,2450.13C809.838,2451.45 715.377,2456.34 653.506,2454.45C705.845,2355.38 807.134,2156.96 844.495,2055.53C864.686,2000.71 881.341,1946.29 892.999,1893.04C904.845,1838.94 911.534,1786.06 911.534,1735.23C911.534,1647.12 884.285,1549.1 842.194,1447.86Z" style="fill:rgb(0,91,148);"/>
                                                </g>
                                            </g>
                                        </g>
                                    </g>
                                </g>
                            </g>
                        </g>
                    </g>
                </g>
                <g transform="matrix(1.71515,0,0,3.09612,-33246.6,-17084.5)">
                    <path d="M33413.1,6289.53L33413.1,6256.07L33417.2,6256.07C33419.1,6256.07 33420.6,6256.41 33421.7,6257.1C33422.8,6257.79 33423.6,6258.81 33424.2,6260.17C33424.7,6261.52 33425.1,6263.22 33425.3,6265.27C33425.5,6267.31 33425.6,6269.69 33425.6,6272.4C33425.6,6275.65 33425.5,6278.36 33425.3,6280.53C33425.1,6282.71 33424.7,6284.47 33424,6285.8C33423.4,6287.13 33422.6,6288.09 33421.6,6288.67C33420.5,6289.24 33419.2,6289.53 33417.4,6289.53L33413.1,6289.53ZM33403.3,6249L33403.3,6296.6L33418.7,6296.6C33422,6296.6 33424.7,6296.11 33426.8,6295.13C33428.9,6294.16 33430.6,6292.67 33431.9,6290.67C33433.1,6288.67 33434,6286.12 33434.5,6283.03C33435.1,6279.94 33435.3,6276.31 33435.3,6272.13C33435.3,6268.62 33435.1,6265.44 33434.7,6262.6C33434.3,6259.76 33433.5,6257.32 33432.4,6255.3C33431.2,6253.28 33429.6,6251.72 33427.5,6250.63C33425.5,6249.55 33422.7,6249 33419.3,6249L33403.3,6249Z" style="fill:white;fill-rule:nonzero;"/>
                    <path d="M33459,6274.6L33449.5,6274.6L33449.5,6273.2C33449.5,6272.36 33449.6,6271.51 33449.7,6270.67C33449.9,6269.82 33450.1,6269.06 33450.5,6268.37C33450.9,6267.68 33451.4,6267.12 33452,6266.7C33452.6,6266.28 33453.4,6266.07 33454.3,6266.07C33455.2,6266.07 33456,6266.26 33456.6,6266.63C33457.2,6267.01 33457.7,6267.57 33458.1,6268.3C33458.4,6269.03 33458.6,6269.92 33458.8,6270.97C33458.9,6272.01 33459,6273.22 33459,6274.6ZM33449.5,6280.07L33468,6280.07L33468,6278C33468,6275.24 33467.8,6272.74 33467.4,6270.5C33467.1,6268.26 33466.4,6266.35 33465.4,6264.77C33464.4,6263.19 33463.1,6261.97 33461.3,6261.1C33459.6,6260.23 33457.3,6259.8 33454.6,6259.8C33451.5,6259.8 33448.9,6260.31 33447,6261.33C33445.2,6262.36 33443.7,6263.73 33442.7,6265.47C33441.7,6267.2 33441,6269.18 33440.6,6271.4C33440.3,6273.62 33440.1,6275.93 33440.1,6278.33C33440.1,6280.6 33440.2,6282.87 33440.4,6285.13C33440.6,6287.4 33441.2,6289.44 33442.1,6291.27C33443,6293.09 33444.4,6294.56 33446.3,6295.67C33448.2,6296.78 33450.8,6297.33 33454.2,6297.33C33458.7,6297.33 33462,6296.24 33464.1,6294.07C33466.1,6291.89 33467.3,6288.71 33467.4,6284.53L33459,6284.53C33458.8,6286.8 33458.3,6288.49 33457.6,6289.6C33456.8,6290.71 33455.7,6291.27 33454.1,6291.27C33453.2,6291.27 33452.5,6291.03 33451.9,6290.57C33451.3,6290.1 33450.9,6289.48 33450.5,6288.7C33450.1,6287.92 33449.9,6287.03 33449.7,6286.03C33449.6,6285.03 33449.5,6284 33449.5,6282.93L33449.5,6280.07Z" style="fill:white;fill-rule:nonzero;"/>
                    <path d="M33490.4,6273.67L33499.4,6273.67C33499.4,6269.4 33498.3,6266.02 33496.1,6263.53C33493.9,6261.05 33490.6,6259.8 33486.3,6259.8C33484.1,6259.8 33482.1,6260.09 33480.3,6260.67C33478.5,6261.24 33477,6262.26 33475.6,6263.7C33474.3,6265.15 33473.3,6267.08 33472.6,6269.5C33471.9,6271.92 33471.5,6274.98 33471.5,6278.67C33471.5,6282.27 33471.8,6285.28 33472.4,6287.7C33473,6290.12 33473.9,6292.06 33475,6293.5C33476.2,6294.94 33477.6,6295.94 33479.3,6296.5C33481.1,6297.06 33483.1,6297.33 33485.5,6297.33C33490.4,6297.33 33494,6296.1 33496.1,6293.63C33498.3,6291.17 33499.4,6287.58 33499.4,6282.87L33490.4,6282.87C33490.4,6285.8 33490.1,6287.93 33489.3,6289.27C33488.6,6290.6 33487.5,6291.27 33485.9,6291.27C33484.8,6291.27 33484,6291.03 33483.3,6290.57C33482.7,6290.1 33482.2,6289.36 33481.8,6288.33C33481.5,6287.31 33481.2,6286.01 33481.1,6284.43C33480.9,6282.86 33480.9,6280.96 33480.9,6278.73C33480.9,6276.65 33480.9,6274.83 33481.1,6273.3C33481.2,6271.77 33481.5,6270.5 33481.8,6269.5C33482.2,6268.5 33482.7,6267.74 33483.4,6267.23C33484.2,6266.72 33485.1,6266.47 33486.2,6266.47C33487.1,6266.47 33487.8,6266.68 33488.4,6267.1C33488.9,6267.52 33489.3,6268.08 33489.6,6268.77C33489.9,6269.46 33490.1,6270.22 33490.3,6271.07C33490.4,6271.91 33490.4,6272.78 33490.4,6273.67Z" style="fill:white;fill-rule:nonzero;"/>
                    <path d="M33504.6,6248.47L33504.6,6256.33L33513.9,6256.33L33513.9,6248.47L33504.6,6248.47ZM33504.6,6260.73L33504.6,6296.6L33513.9,6296.6L33513.9,6260.73L33504.6,6260.73Z" style="fill:white;fill-rule:nonzero;"/>
                    <path d="M33539.2,6292.8L33539.2,6296.6L33548.2,6296.6L33548.2,6249L33538.8,6249L33538.8,6264.07L33538.7,6264.07C33537.7,6262.65 33536.6,6261.58 33535.3,6260.87C33534.1,6260.16 33532.6,6259.8 33530.8,6259.8C33527,6259.8 33524.2,6261.28 33522.3,6264.23C33520.5,6267.19 33519.6,6272 33519.6,6278.67C33519.6,6285.33 33520.5,6290.11 33522.3,6293C33524.2,6295.89 33527,6297.33 33530.8,6297.33C33532.7,6297.33 33534.3,6297 33535.6,6296.33C33536.9,6295.67 33538,6294.49 33539.1,6292.8L33539.2,6292.8ZM33529,6278.67C33529,6274.76 33529.3,6271.81 33529.9,6269.83C33530.5,6267.86 33531.8,6266.87 33533.9,6266.87C33535.9,6266.87 33537.3,6267.86 33537.9,6269.83C33538.5,6271.81 33538.8,6274.76 33538.8,6278.67C33538.8,6282.58 33538.5,6285.52 33537.9,6287.5C33537.3,6289.48 33535.9,6290.47 33533.9,6290.47C33531.8,6290.47 33530.5,6289.48 33529.9,6287.5C33529.3,6285.52 33529,6282.58 33529,6278.67Z" style="fill:white;fill-rule:nonzero;"/>
                    <path d="M33572,6274.6L33562.4,6274.6L33562.4,6273.2C33562.4,6272.36 33562.5,6271.51 33562.6,6270.67C33562.8,6269.82 33563.1,6269.06 33563.4,6268.37C33563.8,6267.68 33564.3,6267.12 33564.9,6266.7C33565.5,6266.28 33566.3,6266.07 33567.2,6266.07C33568.2,6266.07 33568.9,6266.26 33569.5,6266.63C33570.2,6267.01 33570.6,6267.57 33571,6268.3C33571.3,6269.03 33571.5,6269.92 33571.7,6270.97C33571.8,6272.01 33571.9,6273.22 33572,6274.6ZM33562.4,6280.07L33580.9,6280.07L33580.9,6278C33580.9,6275.24 33580.7,6272.74 33580.4,6270.5C33580,6268.26 33579.3,6266.35 33578.3,6264.77C33577.3,6263.19 33576,6261.97 33574.2,6261.1C33572.5,6260.23 33570.3,6259.8 33567.5,6259.8C33564.4,6259.8 33561.9,6260.31 33560,6261.33C33558.1,6262.36 33556.6,6263.73 33555.6,6265.47C33554.6,6267.2 33553.9,6269.18 33553.6,6271.4C33553.2,6273.62 33553,6275.93 33553,6278.33C33553,6280.6 33553.1,6282.87 33553.3,6285.13C33553.6,6287.4 33554.1,6289.44 33555,6291.27C33555.9,6293.09 33557.3,6294.56 33559.2,6295.67C33561.1,6296.78 33563.8,6297.33 33567.1,6297.33C33571.6,6297.33 33574.9,6296.24 33577,6294.07C33579,6291.89 33580.2,6288.71 33580.4,6284.53L33572,6284.53C33571.7,6286.8 33571.2,6288.49 33570.5,6289.6C33569.7,6290.71 33568.6,6291.27 33567,6291.27C33566.1,6291.27 33565.4,6291.03 33564.8,6290.57C33564.2,6290.1 33563.8,6289.48 33563.4,6288.7C33563.1,6287.92 33562.8,6287.03 33562.6,6286.03C33562.5,6285.03 33562.4,6284 33562.4,6282.93L33562.4,6280.07Z" style="fill:white;fill-rule:nonzero;"/>
                    <path d="M33599.4,6260.73L33607.3,6296.6L33618.2,6296.6L33622.7,6271.13L33622.8,6271.13L33627.7,6296.6L33638.3,6296.6L33646.2,6260.73L33637.2,6260.73L33632.8,6286.2L33632.7,6286.2L33627.9,6260.73L33617.7,6260.73L33613.2,6286.2L33613,6286.2L33608.8,6260.73L33599.4,6260.73Z" style="fill:white;fill-rule:nonzero;"/>
                    <path d="M33650.1,6248.47L33650.1,6256.33L33659.4,6256.33L33659.4,6248.47L33650.1,6248.47ZM33650.1,6260.73L33650.1,6296.6L33659.4,6296.6L33659.4,6260.73L33650.1,6260.73Z" style="fill:white;fill-rule:nonzero;"/>
                    <path d="M33668.1,6250.47L33668.1,6260.73L33663.3,6260.73L33663.3,6267L33668.1,6267L33668.1,6287.53C33668.1,6289.36 33668.2,6290.87 33668.4,6292.07C33668.6,6293.27 33669,6294.23 33669.6,6294.97C33670.3,6295.7 33671.1,6296.19 33672.3,6296.43C33673.4,6296.68 33674.9,6296.8 33676.7,6296.8C33677.8,6296.8 33678.8,6296.77 33679.8,6296.7C33680.8,6296.63 33681.8,6296.6 33682.8,6296.6L33682.8,6290.2C33682.5,6290.24 33682.2,6290.28 33681.8,6290.3C33681.4,6290.32 33681.1,6290.33 33680.7,6290.33C33679.4,6290.33 33678.5,6290.03 33678,6289.43C33677.6,6288.83 33677.4,6287.82 33677.4,6286.4L33677.4,6267L33682.8,6267L33682.8,6260.73L33677.4,6260.73L33677.4,6250.47L33668.1,6250.47Z" style="fill:white;fill-rule:nonzero;"/>
                    <path d="M33686.1,6249L33686.1,6296.6L33695.4,6296.6L33695.4,6272.8C33695.4,6268.85 33697.1,6266.87 33700.4,6266.87C33701.8,6266.87 33702.8,6267.23 33703.4,6267.97C33704.1,6268.7 33704.4,6270 33704.4,6271.87L33704.4,6296.6L33713.7,6296.6L33713.7,6270C33713.7,6266.4 33712.9,6263.8 33711.3,6262.2C33709.7,6260.6 33707.4,6259.8 33704.4,6259.8C33700.3,6259.8 33697.4,6261.33 33695.6,6264.4L33695.4,6264.4L33695.4,6249L33686.1,6249Z" style="fill:white;fill-rule:nonzero;"/>
                    <rect x="33737" y="6249" width="9.759" height="47.6" style="fill:white;fill-rule:nonzero;"/>
                    <path d="M33753.7,6260.73L33753.7,6296.6L33763.1,6296.6L33763.1,6272.8C33763.1,6268.85 33764.7,6266.87 33768,6266.87C33769.4,6266.87 33770.4,6267.23 33771.1,6267.97C33771.7,6268.7 33772,6270 33772,6271.87L33772,6296.6L33781.4,6296.6L33781.4,6270C33781.4,6266.4 33780.6,6263.8 33779,6262.2C33777.4,6260.6 33775.1,6259.8 33772.1,6259.8C33770,6259.8 33768.2,6260.21 33766.7,6261.03C33765.1,6261.86 33763.8,6263.16 33762.8,6264.93L33762.7,6264.93L33762.7,6260.73L33753.7,6260.73Z" style="fill:white;fill-rule:nonzero;"/>
                    <path d="M33794.4,6284.87L33786,6284.87L33786,6286.13C33786,6287.87 33786.2,6289.43 33786.7,6290.83C33787.1,6292.23 33787.8,6293.42 33788.8,6294.4C33789.8,6295.38 33791.2,6296.11 33792.9,6296.6C33794.7,6297.09 33796.8,6297.33 33799.5,6297.33C33801.4,6297.33 33803.3,6297.13 33804.9,6296.73C33806.6,6296.33 33808,6295.67 33809.2,6294.73C33810.4,6293.8 33811.3,6292.63 33812,6291.23C33812.7,6289.83 33813,6288.18 33813,6286.27C33813,6283.56 33812.4,6281.41 33811.2,6279.83C33810,6278.26 33807.9,6276.98 33804.9,6276L33799.3,6274.13C33797.7,6273.65 33796.7,6273.05 33796.1,6272.33C33795.5,6271.62 33795.3,6270.82 33795.3,6269.93C33795.3,6268.65 33795.7,6267.68 33796.6,6267.03C33797.5,6266.39 33798.5,6266.07 33799.7,6266.07C33801.2,6266.07 33802.3,6266.5 33802.9,6267.37C33803.5,6268.23 33803.8,6269.6 33803.8,6271.47L33812.2,6271.47L33812.2,6270C33812.2,6266.76 33811.2,6264.24 33809.2,6262.47C33807.1,6260.69 33804,6259.8 33799.7,6259.8C33797.3,6259.8 33795.3,6260.09 33793.6,6260.67C33791.9,6261.24 33790.5,6262.02 33789.4,6263C33788.3,6263.98 33787.6,6265.12 33787.1,6266.43C33786.6,6267.74 33786.3,6269.13 33786.3,6270.6C33786.3,6273.13 33787,6275.21 33788.3,6276.83C33789.6,6278.46 33791.5,6279.71 33794.1,6280.6L33800.7,6282.93C33801.6,6283.29 33802.4,6283.77 33803.1,6284.37C33803.7,6284.97 33804.1,6285.85 33804.1,6287C33804.1,6288.42 33803.6,6289.49 33802.8,6290.2C33801.9,6290.91 33800.8,6291.27 33799.3,6291.27C33797.7,6291.27 33796.5,6290.79 33795.7,6289.83C33794.9,6288.88 33794.4,6287.62 33794.4,6286.07L33794.4,6284.87Z" style="fill:white;fill-rule:nonzero;"/>
                    <path d="M33818,6248.47L33818,6256.33L33827.4,6256.33L33827.4,6248.47L33818,6248.47ZM33818,6260.73L33818,6296.6L33827.4,6296.6L33827.4,6260.73L33818,6260.73Z" style="fill:white;fill-rule:nonzero;"/>
                    <path d="M33842.6,6279.8C33842.6,6277.4 33842.6,6275.37 33842.7,6273.7C33842.8,6272.03 33843.1,6270.7 33843.4,6269.7C33843.8,6268.7 33844.3,6267.98 33844.9,6267.53C33845.6,6267.09 33846.4,6266.87 33847.4,6266.87C33849.3,6266.87 33850.6,6267.78 33851.3,6269.6C33852,6271.42 33852.3,6274.51 33852.3,6278.87C33852.3,6280.38 33852.2,6281.77 33852.1,6283.03C33851.9,6284.3 33851.7,6285.38 33851.3,6286.27C33850.9,6287.16 33850.4,6287.86 33849.7,6288.37C33849.1,6288.88 33848.2,6289.13 33847.2,6289.13C33846.2,6289.13 33845.4,6288.88 33844.8,6288.37C33844.2,6287.86 33843.7,6287.17 33843.4,6286.3C33843.1,6285.43 33842.8,6284.44 33842.7,6283.33C33842.6,6282.22 33842.6,6281.05 33842.6,6279.8ZM33861.3,6260.73L33852.3,6260.73L33852.3,6264.73L33852.2,6264.73C33851.3,6262.87 33850.1,6261.58 33848.7,6260.87C33847.3,6260.16 33846,6259.8 33844.7,6259.8C33842.1,6259.8 33840.1,6260.36 33838.6,6261.47C33837.1,6262.58 33835.9,6264.01 33835.1,6265.77C33834.4,6267.52 33833.8,6269.49 33833.6,6271.67C33833.3,6273.85 33833.2,6275.98 33833.2,6278.07C33833.2,6284.6 33834.1,6289.26 33836,6292.03C33837.9,6294.81 33840.7,6296.2 33844.4,6296.2C33845.9,6296.2 33847.3,6295.8 33848.7,6295C33850.1,6294.2 33851.2,6293.13 33852.2,6291.8L33852.3,6291.8L33852.3,6296.53C33852.3,6298.31 33851.9,6299.8 33851.2,6301C33850.4,6302.2 33849.1,6302.8 33847.2,6302.8C33846.6,6302.8 33846,6302.71 33845.5,6302.53C33845,6302.36 33844.5,6302.11 33844.1,6301.8C33843.1,6301.13 33842.6,6300.22 33842.6,6299.07L33833.7,6299.07C33833.7,6302.13 33834.8,6304.5 33836.9,6306.17C33839.1,6307.83 33842.1,6308.67 33846.1,6308.67C33851.6,6308.67 33855.5,6307.51 33857.8,6305.2C33860.1,6302.89 33861.3,6299.42 33861.3,6294.8L33861.3,6260.73Z" style="fill:white;fill-rule:nonzero;"/>
                    <path d="M33867.8,6249L33867.8,6296.6L33877.2,6296.6L33877.2,6272.8C33877.2,6268.85 33878.8,6266.87 33882.1,6266.87C33883.5,6266.87 33884.6,6267.23 33885.2,6267.97C33885.8,6268.7 33886.1,6270 33886.1,6271.87L33886.1,6296.6L33895.5,6296.6L33895.5,6270C33895.5,6266.4 33894.7,6263.8 33893.1,6262.2C33891.5,6260.6 33889.2,6259.8 33886.2,6259.8C33882.1,6259.8 33879.1,6261.33 33877.3,6264.4L33877.2,6264.4L33877.2,6249L33867.8,6249Z" style="fill:white;fill-rule:nonzero;"/>
                    <path d="M33903.8,6250.47L33903.8,6260.73L33899,6260.73L33899,6267L33903.8,6267L33903.8,6287.53C33903.8,6289.36 33903.9,6290.87 33904.1,6292.07C33904.3,6293.27 33904.7,6294.23 33905.4,6294.97C33906,6295.7 33906.8,6296.19 33908,6296.43C33909.1,6296.68 33910.6,6296.8 33912.4,6296.8C33913.5,6296.8 33914.5,6296.77 33915.5,6296.7C33916.5,6296.63 33917.5,6296.6 33918.5,6296.6L33918.5,6290.2C33918.2,6290.24 33917.9,6290.28 33917.5,6290.3C33917.2,6290.32 33916.8,6290.33 33916.4,6290.33C33915.1,6290.33 33914.2,6290.03 33913.8,6289.43C33913.3,6288.83 33913.1,6287.82 33913.1,6286.4L33913.1,6267L33918.5,6267L33918.5,6260.73L33913.1,6260.73L33913.1,6250.47L33903.8,6250.47Z" style="fill:white;fill-rule:nonzero;"/>
                    <rect x="33922.3" y="6286.2" width="8.946" height="10.4" style="fill:white;fill-rule:nonzero;"/>
                    <path d="M33418.2,6327.27L33414.8,6347.47L33421.8,6347.47L33418.4,6327.27L33418.2,6327.27ZM33426.2,6317.53L33438,6365.13L33424.6,6365.13L33423.3,6356.8L33413.3,6356.8L33412,6365.13L33398.8,6365.13L33410.4,6317.53L33426.2,6317.53Z" style="fill:white;fill-rule:nonzero;"/>
                    <path d="M33459.5,6332L33459.5,6334.67L33471.7,6334.67L33471.7,6331.67C33471.7,6329.36 33471.4,6327.28 33470.8,6325.43C33470.2,6323.59 33469.3,6322.01 33468.1,6320.7C33466.8,6319.39 33465.2,6318.38 33463.2,6317.67C33461.3,6316.96 33458.8,6316.6 33456,6316.6C33452.7,6316.6 33450,6317.03 33447.8,6317.9C33445.6,6318.77 33443.8,6320.18 33442.4,6322.13C33441.1,6324.09 33440.1,6326.65 33439.6,6329.8C33439,6332.96 33438.7,6336.8 33438.7,6341.33C33438.7,6345.78 33438.9,6349.57 33439.4,6352.7C33439.9,6355.83 33440.8,6358.39 33442,6360.37C33443.3,6362.35 33445.1,6363.76 33447.3,6364.6C33449.6,6365.44 33452.5,6365.87 33456,6365.87C33458,6365.87 33460,6365.66 33461.9,6365.23C33463.8,6364.81 33465.6,6363.99 33467,6362.77C33468.5,6361.55 33469.7,6359.87 33470.6,6357.73C33471.5,6355.6 33472,6352.87 33472,6349.53L33472,6346L33459.8,6346C33459.8,6348.27 33459.7,6350.15 33459.6,6351.63C33459.5,6353.12 33459.3,6354.31 33459,6355.2C33458.8,6356.09 33458.4,6356.72 33457.9,6357.1C33457.4,6357.48 33456.8,6357.67 33456,6357.67C33455,6357.67 33454.3,6357.42 33453.7,6356.93C33453.2,6356.44 33452.7,6355.58 33452.4,6354.33C33452.1,6353.09 33452,6351.41 33451.9,6349.3C33451.8,6347.19 33451.7,6344.53 33451.7,6341.33C33451.7,6338.13 33451.8,6335.48 33451.9,6333.37C33452,6331.26 33452.1,6329.58 33452.4,6328.33C33452.7,6327.09 33453.2,6326.22 33453.7,6325.73C33454.3,6325.24 33455,6325 33456,6325C33457.2,6325 33458.1,6325.49 33458.6,6326.47C33459.2,6327.44 33459.5,6329.29 33459.5,6332Z" style="fill:white;fill-rule:nonzero;"/>
                    <path d="M33482.9,6328.07L33482.9,6365.13L33495.5,6365.13L33495.5,6328.07L33505,6328.07L33505,6317.53L33473.5,6317.53L33473.5,6328.07L33482.9,6328.07Z" style="fill:white;fill-rule:nonzero;"/>
                    <path d="M33521.6,6329.27L33529.5,6365.13L33540.4,6365.13L33544.9,6339.67L33545,6339.67L33549.9,6365.13L33560.5,6365.13L33568.4,6329.27L33559.4,6329.27L33555,6354.73L33554.9,6354.73L33550.1,6329.27L33539.9,6329.27L33535.4,6354.73L33535.2,6354.73L33530.9,6329.27L33521.6,6329.27Z" style="fill:white;fill-rule:nonzero;"/>
                    <path d="M33572.3,6317L33572.3,6324.87L33581.6,6324.87L33581.6,6317L33572.3,6317ZM33572.3,6329.27L33572.3,6365.13L33581.6,6365.13L33581.6,6329.27L33572.3,6329.27Z" style="fill:white;fill-rule:nonzero;"/>
                    <path d="M33590.2,6319L33590.2,6329.27L33585.5,6329.27L33585.5,6335.53L33590.2,6335.53L33590.2,6356.07C33590.2,6357.89 33590.4,6359.4 33590.6,6360.6C33590.8,6361.8 33591.2,6362.77 33591.8,6363.5C33592.5,6364.23 33593.3,6364.72 33594.5,6364.97C33595.6,6365.21 33597.1,6365.33 33598.9,6365.33C33600,6365.33 33601,6365.3 33602,6365.23C33603,6365.17 33604,6365.13 33605,6365.13L33605,6358.73C33604.7,6358.78 33604.4,6358.81 33604,6358.83C33603.6,6358.86 33603.3,6358.87 33602.9,6358.87C33601.6,6358.87 33600.7,6358.57 33600.2,6357.97C33599.8,6357.37 33599.6,6356.36 33599.6,6354.93L33599.6,6335.53L33605,6335.53L33605,6329.27L33599.6,6329.27L33599.6,6319L33590.2,6319Z" style="fill:white;fill-rule:nonzero;"/>
                    <path d="M33608.3,6317.53L33608.3,6365.13L33617.6,6365.13L33617.6,6341.33C33617.6,6337.38 33619.3,6335.4 33622.6,6335.4C33624,6335.4 33625,6335.77 33625.6,6336.5C33626.3,6337.23 33626.6,6338.53 33626.6,6340.4L33626.6,6365.13L33635.9,6365.13L33635.9,6338.53C33635.9,6334.93 33635.1,6332.33 33633.5,6330.73C33631.9,6329.13 33629.6,6328.33 33626.6,6328.33C33622.5,6328.33 33619.6,6329.87 33617.8,6332.93L33617.6,6332.93L33617.6,6317.53L33608.3,6317.53Z" style="fill:white;fill-rule:nonzero;"/>
                    <path d="M33679.4,6333.6L33689.1,6333.6C33689.1,6331.87 33689,6330.01 33688.8,6328.03C33688.5,6326.06 33687.9,6324.21 33686.9,6322.5C33685.9,6320.79 33684.4,6319.38 33682.4,6318.27C33680.4,6317.16 33677.6,6316.6 33674.2,6316.6C33670.5,6316.6 33667.6,6317.21 33665.4,6318.43C33663.2,6319.66 33661.6,6321.36 33660.4,6323.53C33659.3,6325.71 33658.5,6328.32 33658.2,6331.37C33657.9,6334.41 33657.7,6337.73 33657.7,6341.33C33657.7,6344.98 33657.9,6348.31 33658.2,6351.33C33658.5,6354.36 33659.3,6356.96 33660.4,6359.13C33661.6,6361.31 33663.2,6362.98 33665.4,6364.13C33667.6,6365.29 33670.5,6365.87 33674.2,6365.87C33677.4,6365.87 33680,6365.38 33682,6364.4C33684,6363.42 33685.5,6362.07 33686.7,6360.33C33687.8,6358.6 33688.5,6356.58 33688.9,6354.27C33689.3,6351.96 33689.5,6349.51 33689.5,6346.93L33679.8,6346.93C33679.8,6349.51 33679.6,6351.59 33679.3,6353.17C33679,6354.74 33678.6,6355.97 33678,6356.83C33677.5,6357.7 33676.8,6358.28 33676.1,6358.57C33675.3,6358.86 33674.5,6359 33673.7,6359C33672.6,6359 33671.7,6358.79 33670.9,6358.37C33670.1,6357.94 33669.5,6357.12 33669,6355.9C33668.4,6354.68 33668.1,6352.96 33667.8,6350.73C33667.6,6348.51 33667.4,6345.6 33667.4,6342C33667.4,6338.62 33667.5,6335.77 33667.7,6333.43C33667.9,6331.1 33668.2,6329.21 33668.7,6327.77C33669.1,6326.32 33669.7,6325.28 33670.5,6324.63C33671.3,6323.99 33672.3,6323.67 33673.5,6323.67C33675.8,6323.67 33677.3,6324.46 33678.1,6326.03C33679,6327.61 33679.4,6330.13 33679.4,6333.6Z" style="fill:white;fill-rule:nonzero;"/>
                    <path d="M33703,6347.2C33703,6345.38 33703,6343.69 33703.1,6342.13C33703.2,6340.58 33703.4,6339.24 33703.7,6338.13C33704.1,6337.02 33704.6,6336.16 33705.3,6335.53C33705.9,6334.91 33706.8,6334.6 33708,6334.6C33709.9,6334.6 33711.2,6335.58 33711.9,6337.53C33712.6,6339.49 33713,6342.71 33713,6347.2C33713,6351.69 33712.6,6354.91 33711.9,6356.87C33711.2,6358.82 33709.9,6359.8 33708,6359.8C33706.8,6359.8 33705.9,6359.49 33705.3,6358.87C33704.6,6358.24 33704.1,6357.38 33703.7,6356.27C33703.4,6355.16 33703.2,6353.82 33703.1,6352.27C33703,6350.71 33703,6349.02 33703,6347.2ZM33693.6,6347.2C33693.6,6350.31 33693.8,6353.06 33694.3,6355.43C33694.7,6357.81 33695.5,6359.79 33696.6,6361.37C33697.7,6362.94 33699.1,6364.1 33701,6364.83C33702.8,6365.57 33705.2,6365.91 33708,6365.87C33710.6,6365.87 33712.9,6365.49 33714.7,6364.73C33716.5,6363.98 33718,6362.81 33719.2,6361.23C33720.3,6359.66 33721.1,6357.69 33721.6,6355.33C33722.1,6352.98 33722.3,6350.27 33722.3,6347.2C33722.3,6344.05 33722.1,6341.29 33721.7,6338.93C33721.2,6336.58 33720.4,6334.6 33719.4,6333C33718.3,6331.4 33716.8,6330.21 33714.9,6329.43C33713.1,6328.66 33710.8,6328.29 33708,6328.33C33705.3,6328.33 33703.1,6328.74 33701.2,6329.57C33699.4,6330.39 33697.9,6331.59 33696.8,6333.17C33695.7,6334.74 33694.8,6336.71 33694.3,6339.07C33693.8,6341.42 33693.6,6344.13 33693.6,6347.2Z" style="fill:white;fill-rule:nonzero;"/>
                    <path d="M33727.4,6329.27L33727.4,6365.13L33736.7,6365.13L33736.7,6341.33C33736.7,6337.38 33738.4,6335.4 33741.7,6335.4C33743.1,6335.4 33744.1,6335.77 33744.7,6336.5C33745.3,6337.23 33745.7,6338.53 33745.7,6340.4L33745.7,6365.13L33755,6365.13L33755,6338.53C33755,6334.93 33754.2,6332.33 33752.6,6330.73C33751,6329.13 33748.7,6328.33 33745.7,6328.33C33743.7,6328.33 33741.9,6328.74 33740.3,6329.57C33738.7,6330.39 33737.4,6331.69 33736.4,6333.47L33736.3,6333.47L33736.3,6329.27L33727.4,6329.27Z" style="fill:white;fill-rule:nonzero;"/>
                    <path d="M33763.3,6335.53L33763.3,6365.13L33772.6,6365.13L33772.6,6335.53L33778,6335.53L33778,6329.27L33772.6,6329.27L33772.6,6326.13C33772.6,6325.11 33772.9,6324.38 33773.4,6323.93C33774,6323.49 33774.9,6323.27 33776.2,6323.27L33777.1,6323.27C33777.5,6323.27 33777.8,6323.29 33778,6323.33L33778,6316.8C33776.4,6316.67 33774.7,6316.6 33773,6316.6C33771.5,6316.6 33770.2,6316.74 33769,6317.03C33767.7,6317.32 33766.7,6317.8 33765.9,6318.47C33765,6319.13 33764.4,6320.02 33763.9,6321.13C33763.5,6322.24 33763.3,6323.6 33763.3,6325.2L33763.3,6329.27L33758.5,6329.27L33758.5,6335.53L33763.3,6335.53ZM33781.7,6317L33781.7,6324.87L33791.1,6324.87L33791.1,6317L33781.7,6317ZM33781.7,6329.27L33781.7,6365.13L33791.1,6365.13L33791.1,6329.27L33781.7,6329.27Z" style="fill:white;fill-rule:nonzero;"/>
                    <path d="M33816.3,6361.33L33816.3,6365.13L33825.3,6365.13L33825.3,6317.53L33815.9,6317.53L33815.9,6332.6L33815.8,6332.6C33814.8,6331.18 33813.7,6330.11 33812.4,6329.4C33811.2,6328.69 33809.7,6328.33 33807.9,6328.33C33804.1,6328.33 33801.3,6329.81 33799.5,6332.77C33797.7,6335.72 33796.8,6340.53 33796.8,6347.2C33796.8,6353.87 33797.7,6358.65 33799.5,6361.53C33801.3,6364.42 33804.1,6365.87 33807.9,6365.87C33809.8,6365.87 33811.4,6365.53 33812.7,6364.87C33814,6364.2 33815.2,6363.02 33816.2,6361.33L33816.3,6361.33ZM33806.1,6347.2C33806.1,6343.29 33806.4,6340.35 33807,6338.37C33807.6,6336.39 33808.9,6335.4 33811,6335.4C33813.1,6335.4 33814.4,6336.39 33815,6338.37C33815.6,6340.35 33815.9,6343.29 33815.9,6347.2C33815.9,6351.11 33815.6,6354.06 33815,6356.03C33814.4,6358.01 33813.1,6359 33811,6359C33808.9,6359 33807.6,6358.01 33807,6356.03C33806.4,6354.06 33806.1,6351.11 33806.1,6347.2Z" style="fill:white;fill-rule:nonzero;"/>
                    <path d="M33849.1,6343.13L33839.5,6343.13L33839.5,6341.73C33839.5,6340.89 33839.6,6340.05 33839.8,6339.2C33839.9,6338.36 33840.2,6337.59 33840.5,6336.9C33840.9,6336.21 33841.4,6335.66 33842,6335.23C33842.6,6334.81 33843.4,6334.6 33844.3,6334.6C33845.3,6334.6 33846.1,6334.79 33846.7,6335.17C33847.3,6335.55 33847.7,6336.1 33848.1,6336.83C33848.4,6337.57 33848.7,6338.46 33848.8,6339.5C33848.9,6340.55 33849,6341.76 33849.1,6343.13ZM33839.5,6348.6L33858,6348.6L33858,6346.53C33858,6343.78 33857.8,6341.28 33857.5,6339.03C33857.1,6336.79 33856.4,6334.88 33855.4,6333.3C33854.4,6331.72 33853.1,6330.5 33851.3,6329.63C33849.6,6328.77 33847.4,6328.33 33844.7,6328.33C33841.5,6328.33 33839,6328.85 33837.1,6329.87C33835.2,6330.89 33833.7,6332.27 33832.7,6334C33831.7,6335.73 33831,6337.71 33830.7,6339.93C33830.3,6342.16 33830.2,6344.47 33830.2,6346.87C33830.2,6349.13 33830.3,6351.4 33830.5,6353.67C33830.7,6355.93 33831.2,6357.98 33832.1,6359.8C33833,6361.62 33834.4,6363.09 33836.3,6364.2C33838.2,6365.31 33840.9,6365.87 33844.3,6365.87C33848.7,6365.87 33852,6364.78 33854.1,6362.6C33856.2,6360.42 33857.3,6357.24 33857.5,6353.07L33849.1,6353.07C33848.8,6355.33 33848.3,6357.02 33847.6,6358.13C33846.9,6359.24 33845.7,6359.8 33844.1,6359.8C33843.3,6359.8 33842.5,6359.57 33842,6359.1C33841.4,6358.63 33840.9,6358.01 33840.5,6357.23C33840.2,6356.46 33839.9,6355.57 33839.8,6354.57C33839.6,6353.57 33839.5,6352.53 33839.5,6351.47L33839.5,6348.6Z" style="fill:white;fill-rule:nonzero;"/>
                    <path d="M33862.9,6329.27L33862.9,6365.13L33872.2,6365.13L33872.2,6341.33C33872.2,6337.38 33873.9,6335.4 33877.2,6335.4C33878.6,6335.4 33879.6,6335.77 33880.2,6336.5C33880.9,6337.23 33881.2,6338.53 33881.2,6340.4L33881.2,6365.13L33890.5,6365.13L33890.5,6338.53C33890.5,6334.93 33889.7,6332.33 33888.1,6330.73C33886.5,6329.13 33884.2,6328.33 33881.3,6328.33C33879.2,6328.33 33877.4,6328.74 33875.8,6329.57C33874.3,6330.39 33873,6331.69 33872,6333.47L33871.8,6333.47L33871.8,6329.27L33862.9,6329.27Z" style="fill:white;fill-rule:nonzero;"/>
                    <path d="M33914.3,6342.2L33923.3,6342.2C33923.3,6337.93 33922.2,6334.56 33920,6332.07C33917.8,6329.58 33914.5,6328.33 33910.2,6328.33C33908,6328.33 33906,6328.62 33904.2,6329.2C33902.4,6329.78 33900.9,6330.79 33899.6,6332.23C33898.2,6333.68 33897.2,6335.61 33896.5,6338.03C33895.8,6340.46 33895.4,6343.51 33895.4,6347.2C33895.4,6350.8 33895.7,6353.81 33896.3,6356.23C33896.9,6358.66 33897.8,6360.59 33898.9,6362.03C33900.1,6363.48 33901.5,6364.48 33903.3,6365.03C33905,6365.59 33907,6365.87 33909.4,6365.87C33914.4,6365.87 33917.9,6364.63 33920.1,6362.17C33922.2,6359.7 33923.3,6356.11 33923.3,6351.4L33914.3,6351.4C33914.3,6354.33 33914,6356.47 33913.2,6357.8C33912.5,6359.13 33911.4,6359.8 33909.8,6359.8C33908.8,6359.8 33907.9,6359.57 33907.3,6359.1C33906.6,6358.63 33906.1,6357.89 33905.7,6356.87C33905.4,6355.85 33905.1,6354.55 33905,6352.97C33904.8,6351.39 33904.8,6349.49 33904.8,6347.27C33904.8,6345.18 33904.8,6343.37 33905,6341.83C33905.1,6340.3 33905.4,6339.03 33905.7,6338.03C33906.1,6337.03 33906.6,6336.28 33907.4,6335.77C33908.1,6335.26 33909,6335 33910.1,6335C33911,6335 33911.8,6335.21 33912.3,6335.63C33912.8,6336.06 33913.3,6336.61 33913.6,6337.3C33913.8,6337.99 33914.1,6338.76 33914.2,6339.6C33914.3,6340.44 33914.3,6341.31 33914.3,6342.2Z" style="fill:white;fill-rule:nonzero;"/>
                    <path d="M33945.7,6343.13L33936.2,6343.13L33936.2,6341.73C33936.2,6340.89 33936.2,6340.05 33936.4,6339.2C33936.6,6338.36 33936.8,6337.59 33937.2,6336.9C33937.5,6336.21 33938,6335.66 33938.6,6335.23C33939.2,6334.81 33940,6334.6 33941,6334.6C33941.9,6334.6 33942.7,6334.79 33943.3,6335.17C33943.9,6335.55 33944.4,6336.1 33944.7,6336.83C33945.1,6337.57 33945.3,6338.46 33945.4,6339.5C33945.6,6340.55 33945.7,6341.76 33945.7,6343.13ZM33936.2,6348.6L33954.7,6348.6L33954.7,6346.53C33954.7,6343.78 33954.5,6341.28 33954.1,6339.03C33953.8,6336.79 33953.1,6334.88 33952.1,6333.3C33951.1,6331.72 33949.7,6330.5 33948,6329.63C33946.2,6328.77 33944,6328.33 33941.3,6328.33C33938.1,6328.33 33935.6,6328.85 33933.7,6329.87C33931.8,6330.89 33930.4,6332.27 33929.3,6334C33928.3,6335.73 33927.7,6337.71 33927.3,6339.93C33927,6342.16 33926.8,6344.47 33926.8,6346.87C33926.8,6349.13 33926.9,6351.4 33927.1,6353.67C33927.3,6355.93 33927.9,6357.98 33928.8,6359.8C33929.7,6361.62 33931.1,6363.09 33933,6364.2C33934.9,6365.31 33937.5,6365.87 33940.9,6365.87C33945.4,6365.87 33948.6,6364.78 33950.7,6362.6C33952.8,6360.42 33953.9,6357.24 33954.1,6353.07L33945.7,6353.07C33945.4,6355.33 33944.9,6357.02 33944.2,6358.13C33943.5,6359.24 33942.3,6359.8 33940.8,6359.8C33939.9,6359.8 33939.2,6359.57 33938.6,6359.1C33938,6358.63 33937.5,6358.01 33937.2,6357.23C33936.8,6356.46 33936.6,6355.57 33936.4,6354.57C33936.2,6353.57 33936.2,6352.53 33936.2,6351.47L33936.2,6348.6Z" style="fill:white;fill-rule:nonzero;"/>
                    <rect x="33960.1" y="6354.73" width="8.946" height="10.4" style="fill:white;fill-rule:nonzero;"/>
                </g>
                <g id="Arrow-ACT-MITRE-Outline1" serif:id="Arrow ACT MITRE Outline" transform="matrix(0.237857,0,0,0.42937,23262.5,1190.77)">
                    <g id="Arrow-Outline-shape1" serif:id="Arrow Outline shape" transform="matrix(0.999955,0,0,0.999955,0.116735,0.11337)">
                        <path d="M3486.31,1747.74C3486.33,1748.98 3486.32,1750.21 3486.3,1751.44C3484.91,1814.11 3455.85,1886.89 3395.53,1963.48C3324.56,2053.59 3207.22,2154.82 3056.73,2259.45C2500.89,2645.87 1479.68,3093.58 814.123,3265.98C686.498,3299.04 571.591,3322.08 474.966,3333.18C343.949,3348.22 242.217,3339.35 179.396,3311.75L133.754,3282.22L114.888,3261.51L100.224,3238.19C82.297,3203.27 75.479,3156.63 86.531,3099.24C111.209,2971.09 244.167,2751.66 381.246,2504.14C439.574,2393.7 552.048,2174.05 593.487,2061.55C614.945,2003.3 632.719,1945.48 645.109,1888.89C657.074,1834.25 664.019,1780.85 664.019,1729.51C664.019,1640.26 634.952,1541.31 592.313,1438.76C550.49,1338.16 396.189,1079.65 365.833,1028.92C362.835,1023.9 360.731,1020.41 360.731,1020.41C360.51,1020.04 360.291,1019.68 360.074,1019.31C282.076,886.639 258.587,842.085 194.642,731.627C185.313,715.512 126.012,612.618 92.181,523.32C73.25,473.349 62.991,426.049 64.172,392.847L72.604,342.63L90.454,304.259L128.564,261.54L154.822,244.033C163.75,239.127 173.679,234.602 184.765,230.694C249.928,207.724 408.512,167.566 820.684,264.342C1496.8,423.09 2514.56,861.198 3064.61,1241.75C3213.8,1344.97 3329.57,1445.11 3398.99,1534.3C3458.45,1610.7 3486.24,1683.4 3486.32,1746.06C3486.32,1746.62 3486.32,1747.18 3486.31,1747.74ZM373.884,933.068L353.527,934.642C353.502,934.705 361.422,934.083 373.884,933.068Z" style="fill:white;"/>
                    </g>
                    <g id="Arrow-ACT-MITRE1" serif:id="Arrow ACT MITRE">
                        <g id="Arrow--no-text-2" serif:id="Arrow (no text)" transform="matrix(1,0,0,1,-5075.54,-0.0332827)">
                            <g id="Arrow-bottom-layer1" serif:id="Arrow bottom layer" transform="matrix(0.999955,0,0,0.999955,5075.58,0.080087)">
                                <path d="M278.377,683.152C265.952,661.689 158.055,475.308 160.866,396.286C161.018,392.017 159.546,342.174 216.931,321.946C276.566,300.924 421.361,269.969 798.568,358.535C1750.22,581.979 3389.08,1366.67 3389.57,1746.18C3389.49,1745.34 3389.4,1744.51 3389.31,1743.67C3389.39,1745.02 3389.45,1746.38 3389.49,1747.75C3388.69,1755.85 3387.31,1763.61 3385.32,1771.04C3384.06,1775.74 3382.53,1780.45 3380.73,1785.17C3382.54,1780.47 3384.09,1775.76 3385.35,1771.04C3387.34,1763.61 3388.73,1755.85 3389.53,1747.75C3389.54,1748.27 3389.56,1748.78 3389.57,1749.3C3381.09,2133.05 1727.48,2929.44 789.86,3172.32C667.2,3204.09 556.794,3226.39 463.928,3237.06C355.163,3249.55 270.459,3246.07 218.308,3223.17C93.654,3168.41 279.196,2888.18 466.35,2550.18C526.071,2437.14 641.647,2210.73 684.278,2095C707.318,2032.45 726.321,1970.34 739.624,1909.59C753.142,1847.85 760.774,1787.51 760.774,1729.51C760.774,1628.98 729.681,1517.12 681.653,1401.61C633.792,1286.5 444.758,970.225 443.482,970.272C365.637,837.862 342.197,793.393 278.377,683.152Z" style="fill:rgb(135,222,255);"/>
                            </g>
                            <g id="Arrow-2nd-from-bottom-layer1" serif:id="Arrow 2nd from bottom layer" transform="matrix(1.14106,0,0,1.14106,4796.2,-250.478)">
                                <path d="M3207.58,1784C3209.18,1779.88 3210.53,1775.76 3211.63,1771.62C3213.38,1765.11 3214.6,1758.3 3215.3,1751.21C3215.31,1751.66 3215.32,1752.12 3215.33,1752.57C3207.9,2088.88 1758.7,2786.82 936.996,2999.67C829.499,3027.52 732.741,3047.06 651.355,3056.41C556.036,3067.36 481.803,3064.31 436.098,3044.24C326.854,2996.25 489.459,2750.66 653.478,2454.45C705.816,2355.38 807.105,2156.96 844.466,2055.53C864.658,2000.71 881.312,1946.29 892.97,1893.04C904.817,1838.94 911.505,1786.06 911.505,1735.23C911.505,1647.12 884.257,1549.1 842.166,1447.86C800.333,1347.24 692.686,1170.58 633.439,1069.84C633.439,1069.84 633.438,1069.84 633.437,1069.84C565.215,953.801 544.673,914.83 488.742,818.216C621.964,809.319 799.24,822.882 999.704,853.276C1868.95,985.072 3174.21,1433.34 3214.3,1739.16C3214.66,1741.93 3214.93,1744.75 3215.1,1747.59C3215.17,1748.79 3215.23,1750 3215.27,1751.21C3214.57,1758.3 3213.35,1765.11 3211.61,1771.62C3210.5,1775.74 3209.16,1779.86 3207.58,1784Z" style="fill:rgb(27,122,189);"/>
                            </g>
                            <g id="Arrow-2nd-from-top-layer1" serif:id="Arrow 2nd from top layer" transform="matrix(1.14106,0,0,1.14106,4796.2,-250.478)">
                                <path d="M3207.58,1784C3209.18,1779.88 3210.53,1775.76 3211.63,1771.62C3213.38,1765.11 3214.6,1758.3 3215.3,1751.21C3215.31,1751.66 3215.32,1752.12 3215.33,1752.57C3207.9,2088.88 1758.7,2786.82 936.996,2999.67C829.499,3027.52 732.741,3047.06 651.355,3056.41C556.036,3067.36 481.803,3064.31 436.098,3044.24C326.854,2996.25 489.459,2750.66 653.478,2454.45C705.816,2355.38 807.105,2156.96 844.466,2055.53C864.658,2000.71 881.312,1946.29 892.97,1893.04C904.817,1838.94 911.505,1786.06 911.505,1735.23C911.505,1647.12 884.257,1549.1 842.166,1447.86C800.221,1346.98 692.112,1169.64 632.967,1069.04C727.729,1065.51 877.764,1070.86 987.668,1075C1865.91,1108.04 3134.54,1441.14 3211.61,1728.76C3213.22,1734.79 3214.38,1741.07 3215.1,1747.59C3215.17,1748.79 3215.23,1750 3215.27,1751.21C3214.57,1758.3 3213.35,1765.11 3211.61,1771.62C3210.5,1775.74 3209.16,1779.86 3207.58,1784Z" style="fill:rgb(11,35,56);"/>
                            </g>
                            <g id="Arrow-top-layer1" serif:id="Arrow top layer" transform="matrix(1.14106,0,0,1.14106,4796.16,-250.478)">
                                <path d="M842.194,1447.86C800.25,1346.98 692.141,1169.64 632.995,1069.04C727.757,1065.51 877.793,1070.86 987.697,1075C1865.93,1108.04 3134.57,1441.14 3211.63,1728.76C3213.25,1734.79 3214.41,1741.07 3215.13,1747.59C3215.2,1748.79 3215.26,1750 3215.3,1751.21C3214.6,1758.3 3213.38,1765.11 3211.63,1771.62C3134.57,2059.24 1884.26,2412.23 1006.03,2445.26C974.924,2446.43 908.324,2449.55 878.257,2450.13C809.838,2451.45 715.377,2456.34 653.506,2454.45C705.845,2355.38 807.134,2156.96 844.495,2055.53C864.686,2000.71 881.341,1946.29 892.999,1893.04C904.845,1838.94 911.534,1786.06 911.534,1735.23C911.534,1647.12 884.285,1549.1 842.194,1447.86Z" style="fill:rgb(0,91,148);"/>
                            </g>
                        </g>
                        <g id="MITRE-ACT-text" serif:id="MITRE ACT text" transform="matrix(2.44093,0,0,2.44093,-735.154,-255.885)">
                            <g id="MITRE-Text" serif:id="MITRE Text" transform="matrix(1.1547,0,0,1.1547,715.923,540.398)">
                                <path d="M62.1,14.5L47.6,51.9L32.9,14.5L21.2,14.5L10,74.4L22,74.4L29.1,36.9L43,74.4L52,74.4L65.9,36.9L73,74.4L85.4,74.4L73.8,14.5L62.1,14.5Z" style="fill:white;fill-rule:nonzero;stroke:white;stroke-width:2.32px;"/>
                                <rect x="88.4" y="14.5" width="11.2" height="60" style="fill:white;stroke:white;stroke-width:2.32px;"/>
                                <path d="M103.3,14.5L103.3,24.2L116.5,24.2L116.5,74.4L127.7,74.4L127.7,24.2L140.9,24.2L140.9,14.5L103.3,14.5Z" style="fill:white;fill-rule:nonzero;stroke:white;stroke-width:2.32px;"/>
                                <g>
                                    <path d="M155.8,74.4L144.6,74.4L144.6,14.4L171.3,14.4C172.4,14.4 174.2,14.8 176.7,15.5C179.2,16.2 181.7,17.9 184.2,20.4C186.7,23 187.9,26.7 187.9,31.6C187.9,36.7 186.6,40.6 183.9,43.2C181.2,45.9 178.5,47.5 175.7,48.2C173,49 170.9,49.3 169.6,49.3L189.6,74.3L176,74.3L157.7,49.5L157.7,38.9L168.9,38.8L169.5,38.8C171,38.8 172.6,38.2 174.1,37.1C175.8,35.8 176.6,34 176.6,31.7C176.6,29.6 175.9,27.9 174.5,26.5C173.1,25.2 171.2,24.5 168.8,24.5L155.7,24.5L155.7,74.4L155.8,74.4Z" style="fill:white;fill-rule:nonzero;stroke:white;stroke-width:2.32px;"/>
                                    <path d="M189.5,14.5L224.3,14.5L224.3,24.2L200.8,24.2L200.8,39.6L224,39.6L224,49.3L200.8,49.3L200.8,64.7L224.3,64.7L224.3,74.4L189.5,74.4L189.5,14.5Z" style="fill:white;fill-rule:nonzero;stroke:white;stroke-width:2.32px;"/>
                                </g>
                            </g>
                            <g id="ACT-TM-text" serif:id="ACT TM text" transform="matrix(1,0,0,1,-7.00088,-2.96606)">
                                <g id="ACT-text" serif:id="ACT text" transform="matrix(6.416,0,0,7.52212,-5226.3,-8841.15)">
                                    <g transform="matrix(66.5654,0,0,66.5654,1020.06,1310.73)">
                                    </g>
                                    <text x="917.882px" y="1310.73px" style="font-family:'HelveticaNeue-CondensedBlack', 'Helvetica Neue';font-weight:900;font-stretch:condensed;font-size:66.565px;fill:white;stroke:white;stroke-width:0.38px;">A<tspan x="953.561px " y="1310.73px ">C</tspan>T</text>
                                </g>
                                <g id="TM-text" serif:id="TM text" transform="matrix(0.189972,0,0,0.186875,945.358,588.817)">
                                    <path d="M2183.57,534.209L2183.57,664.908L2218.83,664.908L2218.83,534.209L2266.88,534.209L2266.88,504.566L2135.51,504.566L2135.51,534.209L2183.57,534.209Z" style="fill:white;fill-rule:nonzero;"/>
                                    <path d="M2285.3,504.566L2285.3,664.908L2318.31,664.908L2318.31,552.399L2318.76,552.399L2358.06,664.908L2385.23,664.908L2424.53,551.276L2424.98,551.276L2424.98,664.908L2457.99,664.908L2457.99,504.566L2408.36,504.566L2372.88,614.829L2372.43,614.829L2334.93,504.566L2285.3,504.566Z" style="fill:white;fill-rule:nonzero;"/>
                                </g>
                            </g>
                        </g>
                    </g>
                </g>
            </g>
        </g>
    </g>
</svg>
